HIERARCHY
ROOT hips
{
  OFFSET 0 10.6860622 2.3727825e-15
  CHANNELS 6 Xposition Yposition Zposition Yrotation Xrotation Zrotation
  JOINT leftUpperLeg
  {
    OFFSET 0.6642549969 -0.9402397400000004 0
    CHANNELS 3 Yrotation Xrotation Zrotation
    JOINT leftLowerLeg
    {
      OFFSET 0 -3.997221335632195 0
      CHANNELS 3 Yrotation Xrotation Zrotation
      JOINT leftFoot
      {
        OFFSET -0.13777839790000004 -4.6145792000000005 -0.22186036399999998
        CHANNELS 3 Yrotation Xrotation Zrotation
        JOINT leftToes
        {
          OFFSET -0.03777410834999995 -0.9130806927000008 0.85230013
          CHANNELS 3 Yrotation Xrotation Zrotation
          End Site
          {
            OFFSET -0.03777410834999995 -0.9130806927000008 0.85230013
          }
        }
      }
    }
  }
  JOINT rightUpperLeg
  {
    OFFSET -0.6642778626 -0.9402397400000004 0
    CHANNELS 3 Yrotation Xrotation Zrotation
    JOINT rightLowerLeg
    {
      OFFSET 0 -3.997221452859387 0
      CHANNELS 3 Yrotation Xrotation Zrotation
      JOINT rightFoot
      {
        OFFSET 0.1377926176 -4.6145792000000005 -0.22185782299999995
        CHANNELS 3 Yrotation Xrotation Zrotation
        JOINT rightToes
        {
          OFFSET 0.037780746850000047 -0.9130806927000008 0.85230167
          CHANNELS 3 Yrotation Xrotation Zrotation
          End Site
          {
            OFFSET 0.037780746850000047 -0.9130806927000008 0.85230167
          }
        }
      }
    }
  }
  JOINT spine
  {
    OFFSET 0 0.13988381660000015 0
    CHANNELS 3 Yrotation Xrotation Zrotation
    JOINT chest
    {
      OFFSET 0 0.6191039003973773 0
      CHANNELS 3 Yrotation Xrotation Zrotation
      JOINT upperChest
      {
        OFFSET 0 0.9855186130586943 0
        CHANNELS 3 Yrotation Xrotation Zrotation
        JOINT leftShoulder
        {
          OFFSET 0.1807663869 1.5087829790000005 0
          CHANNELS 3 Yrotation Xrotation Zrotation
          JOINT leftUpperArm
          {
            OFFSET 0.5985063006419806 0 0
            CHANNELS 3 Yrotation Xrotation Zrotation
            JOINT leftLowerArm
            {
              OFFSET 2.2993332369501065 0 0
              CHANNELS 3 Yrotation Xrotation Zrotation
              JOINT leftHand
              {
                OFFSET 2.395047042602395 0 0
                CHANNELS 3 Yrotation Xrotation Zrotation
                JOINT leftIndexProximal
                {
                  OFFSET 0.5766295810000004 0.04556643899499946 0.17265095988184
                  CHANNELS 3 Yrotation Xrotation Zrotation
                  JOINT leftIndexIntermediate
                  {
                    OFFSET 0.2957229000000008 -0.019352197700001517 -0.007932640616999987
                    CHANNELS 3 Yrotation Xrotation Zrotation
                    JOINT leftIndexDistal
                    {
                      OFFSET 0.19008243099999922 -0.012484908149998475 -0.002786250786000012
                      CHANNELS 3 Yrotation Xrotation Zrotation
                      End Site
                      {
                        OFFSET 0.19008243099999922 -0.012484908149998475 -0.002786250786000012
                      }
                    }
                  }
                }
                JOINT leftMiddleProximal
                {
                  OFFSET 0.5834975091000001 0.0524350405149987 0.02204081888183999
                  CHANNELS 3 Yrotation Xrotation Zrotation
                  JOINT leftMiddleIntermediate
                  {
                    OFFSET 0.33880573540000003 -0.019871473270000717 -0.00000971183179999946
                    CHANNELS 3 Yrotation Xrotation Zrotation
                    JOINT leftMiddleDistal
                    {
                      OFFSET 0.20676022730000088 -0.012221336379999448 0.0001471936708000235
                      CHANNELS 3 Yrotation Xrotation Zrotation
                      End Site
                      {
                        OFFSET 0.20676022730000088 -0.012221336379999448 0.0001471936708000235
                      }
                    }
                  }
                }
                JOINT leftLittleProximal
                {
                  OFFSET 0.5344154683999995 -0.012880921405001189 -0.24414037221816004
                  CHANNELS 3 Yrotation Xrotation Zrotation
                  JOINT leftLittleIntermediate
                  {
                    OFFSET 0.21758961730000093 -0.011650919939999227 0.011893592810000034
                    CHANNELS 3 Yrotation Xrotation Zrotation
                    JOINT leftLittleDistal
                    {
                      OFFSET 0.1475273964999999 -0.008152365682999818 0.006001092492999946
                      CHANNELS 3 Yrotation Xrotation Zrotation
                      End Site
                      {
                        OFFSET 0.1475273964999999 -0.008152365682999818 0.006001092492999946
                      }
                    }
                  }
                }
                JOINT leftRingProximal
                {
                  OFFSET 0.5799399463000003 0.026911854694997794 -0.12150566991816003
                  CHANNELS 3 Yrotation Xrotation Zrotation
                  JOINT leftRingIntermediate
                  {
                    OFFSET 0.26167887460000006 -0.013480186499999602 0.010996293000000053
                    CHANNELS 3 Yrotation Xrotation Zrotation
                    JOINT leftRingDistal
                    {
                      OFFSET 0.17667108799999987 -0.008990287899999228 0.0055541023999999065
                      CHANNELS 3 Yrotation Xrotation Zrotation
                      End Site
                      {
                        OFFSET 0.17667108799999987 -0.008990287899999228 0.0055541023999999065
                      }
                    }
                  }
                }
                JOINT leftThumbProximal
                {
                  OFFSET 0.11018806699999972 -0.09448718900500053 0.17047963138184
                  CHANNELS 3 Yrotation Xrotation Zrotation
                  JOINT leftThumbIntermediate
                  {
                    OFFSET 0.31062601459999983 -0.08126270900000132 0.15443142000000007
                    CHANNELS 3 Yrotation Xrotation Zrotation
                    JOINT leftThumbDistal
                    {
                      OFFSET 0.21627175790000086 -0.08833193599999878 0.018771167799999988
                      CHANNELS 3 Yrotation Xrotation Zrotation
                      End Site
                      {
                        OFFSET 0.21627175790000086 -0.08833193599999878 0.018771167799999988
                      }
                    }
                  }
                }
              }
            }
          }
        }
        JOINT neck
        {
          OFFSET 0 1.5463305265074576 0
          CHANNELS 3 Yrotation Xrotation Zrotation
          JOINT head
          {
            OFFSET 0 0.8456443600000344 0
            CHANNELS 3 Yrotation Xrotation Zrotation
            JOINT leftEye
            {
              OFFSET 0.30408573140000006 0.5104519199999995 0.1276382305
              CHANNELS 3 Yrotation Xrotation Zrotation
              End Site
              {
                OFFSET 0.30408573140000006 0.5104519199999995 0.1276382305
              }
            }
            JOINT rightEye
            {
              OFFSET -0.30409491089999996 0.5104519199999995 0.1276379445
              CHANNELS 3 Yrotation Xrotation Zrotation
              End Site
              {
                OFFSET -0.30409491089999996 0.5104519199999995 0.1276379445
              }
            }
            JOINT jaw
            {
              OFFSET -3.155239131000001e-7 -0.11984121820000082 0.60178107
              CHANNELS 3 Yrotation Xrotation Zrotation
              End Site
              {
                OFFSET -3.155239131000001e-7 -0.11984121820000082 0.60178107
              }
            }
          }
        }
        JOINT rightShoulder
        {
          OFFSET -0.1807303465 1.5087829790000005 0
          CHANNELS 3 Yrotation Xrotation Zrotation
          JOINT rightUpperArm
          {
            OFFSET -0.5985063796536958 0 0
            CHANNELS 3 Yrotation Xrotation Zrotation
            JOINT rightLowerArm
            {
              OFFSET -2.2993322059002854 0 0
              CHANNELS 3 Yrotation Xrotation Zrotation
              JOINT rightHand
              {
                OFFSET -2.395045314457259 0 0
                CHANNELS 3 Yrotation Xrotation Zrotation
                JOINT rightIndexProximal
                {
                  OFFSET -0.5764487688300002 0.0441371204405987 0.17361932004999997
                  CHANNELS 3 Yrotation Xrotation Zrotation
                  JOINT rightIndexIntermediate
                  {
                    OFFSET -0.29573011380000047 -0.01934826376999843 -0.007698921482999974
                    CHANNELS 3 Yrotation Xrotation Zrotation
                    JOINT rightIndexDistal
                    {
                      OFFSET -0.19008373999999884 -0.012503266380000655 -0.0026365778999999897
                      CHANNELS 3 Yrotation Xrotation Zrotation
                      End Site
                      {
                        OFFSET -0.19008373999999884 -0.012503266380000655 -0.0026365778999999897
                      }
                    }
                  }
                }
                JOINT rightMiddleProximal
                {
                  OFFSET -0.5834852037300005 0.05211639405060153 0.02307162440000001
                  CHANNELS 3 Yrotation Xrotation Zrotation
                  JOINT rightMiddleIntermediate
                  {
                    OFFSET -0.33880114510000003 -0.019952774050000954 0.0002455003561999819
                    CHANNELS 3 Yrotation Xrotation Zrotation
                    JOINT rightMiddleDistal
                    {
                      OFFSET -0.20675694929999955 -0.012273788999999091 0.00030209124000002766
                      CHANNELS 3 Yrotation Xrotation Zrotation
                      End Site
                      {
                        OFFSET -0.20675694929999955 -0.012273788999999091 0.00030209124000002766
                      }
                    }
                  }
                }
                JOINT rightLittleProximal
                {
                  OFFSET -0.5346811737299992 -0.011214256288399227 -0.24363941305000003
                  CHANNELS 3 Yrotation Xrotation Zrotation
                  JOINT rightLittleIntermediate
                  {
                    OFFSET -0.21757715980000092 -0.011771559690000988 0.01201554387
                    CHANNELS 3 Yrotation Xrotation Zrotation
                    JOINT rightLittleDistal
                    {
                      OFFSET -0.1475201849000004 -0.00822055339600003 0.006082065407000015
                      CHANNELS 3 Yrotation Xrotation Zrotation
                      End Site
                      {
                        OFFSET -0.1475201849000004 -0.00822055339600003 0.006082065407000015
                      }
                    }
                  }
                }
                JOINT rightRingProximal
                {
                  OFFSET -0.5800810755299999 0.027657985680600072 -0.12066365025000003
                  CHANNELS 3 Yrotation Xrotation Zrotation
                  JOINT rightRingIntermediate
                  {
                    OFFSET -0.26166445029999974 -0.013623118409999302 0.011164098990000045
                    CHANNELS 3 Yrotation Xrotation Zrotation
                    JOINT rightRingDistal
                    {
                      OFFSET -0.17666387530000027 -0.009072900100000503 0.005668185599999959
                      CHANNELS 3 Yrotation Xrotation Zrotation
                      End Site
                      {
                        OFFSET -0.17666387530000027 -0.009072900100000503 0.005668185599999959
                      }
                    }
                  }
                }
                JOINT rightThumbProximal
                {
                  OFFSET -0.10997596379000074 -0.09577489355940072 0.16989765924999997
                  CHANNELS 3 Yrotation Xrotation Zrotation
                  JOINT rightThumbIntermediate
                  {
                    OFFSET -0.31036620999999986 -0.08229339117999834 0.15440884469999996
                    CHANNELS 3 Yrotation Xrotation Zrotation
                    JOINT rightThumbDistal
                    {
                      OFFSET -0.21631306399999906 -0.08825326400000111 0.018656797720000014
                      CHANNELS 3 Yrotation Xrotation Zrotation
                      End Site
                      {
                        OFFSET -0.21631306399999906 -0.08825326400000111 0.018656797720000014
                      }
                    }
                  }
                }
              }
            }
          }
        }
      }
    }
  }
}
MOTION
Frames: 8
Frame Time: 0.03333333333333333
0.1346301259557403 -7.413512530557459 0.04974033446434128 0 15.227316812076284 0 -9.522765741619969 -58.769325775691584 34.792180910869696 177.1110254397622 54.94728910451606 -161.4250717376279 -0.7264531932924695 47.70862891563759 -10.858363866203632 0 0 0 9.631623152307442 -58.66793996719768 -34.932344023757 -177.19389435455585 55.00974327239236 161.24669842576674 1.0212693588992536 47.96893623741767 11.094924797049346 0 0 0 -0.8869678843738984 20.397547759299723 -1.64695583113361 -0.5534165655939318 40.155440912566256 -0.7413170497267246 0 0 0 -16.13830888020253 -0.7935743059256 -10.556041564833686 -67.4182401200722 -36.3202790202671 -13.450058140580257 -10.034568553623096 -16.632435399711806 4.299931729326786 10.82052083348838 2.8110762120926394 22.77299150768707 0 0 0 0 0 0 0 0 0 0 0 0 0 0 0 0 0 0 0 0 0 0 0 0 0 0 0 0 0 0 0 0 0 0 0 0 0 0 0 0 0 0 0 0 0 0 1.5275236235667615 0 0 0 0 0 0 0 0 0 0 0 0 0 16.30073879169404 -0.9332268505557877 10.545120212725434 73.09380264078601 -27.166629698441003 10.311398592922412 6.370781951827663 -16.608886267396368 -5.314404855834934 -10.64112334175476 2.9147500090373284 -23.388562085439624 0 0 0 0 0 0 0 0 0 0 0 0 0 0 0 0 0 0 0 0 0 0 0 0 0 0 0 0 0 0 0 0 0 0 0 0 0 0 0 0 0 0 0 0 0
0.1346301259557403 -7.381023109331317 0.03152052512672827 0 16.68469754270919 0 -10.411412012199957 -59.99607792275447 34.636941300584624 177.1110254397622 54.94728910451606 -161.4250717376279 -1.182201054946934 47.96189773969346 -12.205028057447104 0 0 0 10.534909915790745 -59.88428538753358 -34.793947187859445 -177.19389435455585 55.00974327239236 161.24669842576674 1.5138488931643233 48.243601192303785 12.472191515042319 0 0 0 -0.878422629412716 18.73655250811828 -1.6205646950033787 -0.5534165655939318 40.155440912566256 -0.7413170497267246 0 0 0 -17.391692162403242 -0.8983924909459367 -10.308610446713244 -65.20379430263773 -37.36403706143165 -13.933226568109905 -9.660754713226586 -16.981951480447055 4.305342825418189 10.003662643028148 2.6842237248472602 23.02427935921063 0 0 0 0 0 0 0 0 0 0 0 0 0 0 0 0 0 0 0 0 0 0 0 0 0 0 0 0 0 0 0 0 0 0 0 0 0 0 0 0 0 0 0 0 0 0 1.5275236235667615 0 0 0 0 0 0 0 0 0 0 0 0 0 17.570490616776194 -1.0508999613328387 10.295083772183698 71.63659336497128 -27.301504052754364 11.12762092091615 6.103887289630728 -16.957691298311307 -5.3222814783471675 -9.806198027566174 2.8031629070615414 -23.69750910395051 0 0 0 0 0 0 0 0 0 0 0 0 0 0 0 0 0 0 0 0 0 0 0 0 0 0 0 0 0 0 0 0 0 0 0 0 0 0 0 0 0 0 0 0 0
0.1346301259557403 -7.3647783987182445 0.0224104862617861 0 17.41315112911575 0 -10.865629799438446 -60.6096484269253 34.571678278771564 177.1110254397622 54.94728910451606 -161.4250717376279 -1.4141752937140728 48.08579824143704 -12.881819979052862 0 0 0 10.996785201411296 -60.49261124988007 -34.73741752875487 -177.19389435455585 55.00974327239236 161.24669842576674 1.764770705219688 48.37793748422687 13.164777589359527 0 0 0 -0.8744834564782837 17.906399450846223 -1.6075679657000779 -0.5534165655939318 40.155440912566256 -0.7413170497267246 0 0 0 -18.018407829374496 -0.9487530039569616 -10.184077975748053 -64.08017660117589 -37.88032145722786 -14.196568113148615 -9.473605304204103 -17.156714531726532 4.307158415077085 9.595106718624038 2.6221512305159025 23.15057591979025 0 0 0 0 0 0 0 0 0 0 0 0 0 0 0 0 0 0 0 0 0 0 0 0 0 0 0 0 0 0 0 0 0 0 0 0 0 0 0 0 0 0 0 0 0 0 1.5275236235667615 0 0 0 0 0 0 0 0 0 0 0 0 0 18.20540346406688 -1.1076356037712205 10.169125420943862 70.9072525008858 -27.361962661049205 11.537088345810439 5.970278399609187 -17.132102858650327 -5.325590289223248 -9.388592659191264 2.749066645734685 -23.852553499882408 0 0 0 0 0 0 0 0 0 0 0 0 0 0 0 0 0 0 0 0 0 0 0 0 0 0 0 0 0 0 0 0 0 0 0 0 0 0 0 0 0 0 0 0 0
0.1346301259557403 -7.3485336881051735 0.013300447396843941 0 18.141371340347305 0 -11.327056573304706 -61.223228526819746 34.51529065065147 177.1110254397622 54.94728910451606 -161.4250717376279 -1.6488409395291181 48.2078199909198 -13.560855340078083 0 0 0 11.466093770913476 -61.10090119949919 -34.68996528893946 -177.19389435455585 55.00974327239236 161.24669842576674 2.01873367191832 48.5101959952696 13.859929973734511 0 0 0 -0.8707619348072355 17.07659425526912 -1.5946950756476603 -0.5534165655939318 40.155440912566256 -0.7413170497267246 0 0 0 -18.64508714816447 -0.9977374377008095 -10.05903089615834 -62.945512960786886 -38.39245514767977 -14.474650878457874 -9.28629036116931 -17.33147058624194 4.3083755773435035 9.186481719679183 2.5609860110593385 23.27728703905643 0 0 0 0 0 0 0 0 0 0 0 0 0 0 0 0 0 0 0 0 0 0 0 0 0 0 0 0 0 0 0 0 0 0 0 0 0 0 0 0 0 0 0 0 0 0 1.5275236235667615 0 0 0 0 0 0 0 0 0 0 0 0 0 18.840296881477457 -1.162959365825279 10.04258141072966 70.17753643966832 -27.41772593820133 11.947337748433656 5.836555557947773 -17.30651726418609 -5.3284741045882145 -8.970915343272269 2.696107476742205 -24.007958574533063 0 0 0 0 0 0 0 0 0 0 0 0 0 0 0 0 0 0 0 0 0 0 0 0 0 0 0 0 0 0 0 0 0 0 0 0 0 0 0 0 0 0 0 0 0
0.1346301259557403 -7.31604426687903 -0.00491936194076908 0 19.596871736295455 0 -12.273512430588198 -62.44996847517573 34.43112769516063 177.1110254397622 54.94728910451606 -161.4250717376279 -2.1261290162484965 48.446165404240325 -14.925499035650951 0 0 0 12.429088664146578 -62.31703390453838 -34.62444579545285 -177.19389435455585 55.00974327239236 161.24669842576674 2.535662186924948 48.76843808357191 15.25777672680025 0 0 0 -0.8639486867273294 15.418376938111194 -1.5692992314782799 -0.5534165655939318 40.155440912566256 -0.7413170497267246 0 0 0 -19.898159830525294 -1.0915413546076882 -9.807487763520339 -60.642597960227135 -39.40292169512608 -15.07578595359088 -8.911162824347436 -17.680966349728575 4.309016487686586 8.369079312422462 2.441401381851142 23.531931092132215 0 0 0 0 0 0 0 0 0 0 0 0 0 0 0 0 0 0 0 0 0 0 0 0 0 0 0 0 0 0 0 0 0 0 0 0 0 0 0 0 0 0 0 0 0 0 1.5275236235667615 0 0 0 0 0 0 0 0 0 0 0 0 0 20.109826682164176 -1.2693301343244567 9.787814473140777 68.71751749056975 -27.51520045319475 12.76968972592607 5.568770491743441 -17.65533603480104 -5.33297047131258 -8.135401708015296 2.5936150275432897 -24.319815797157073 0 0 0 0 0 0 0 0 0 0 0 0 0 0 0 0 0 0 0 0 0 0 0 0 0 0 0 0 0 0 0 0 0 0 0 0 0 0 0 0 0 0 0 0 0
0.1346301259557403 -7.299799556265958 -0.014029132413439937 0 20.324029191701165 0 -12.7596710929161 -63.062948203301566 34.40450916581962 177.1110254397622 54.94728910451606 -161.4250717376279 -2.368680174565899 48.56242722940506 -15.61101016747574 0 0 0 12.923894715637005 -62.92466328494632 -34.60751282345031 -177.19389435455585 55.00974327239236 161.24669842576674 2.798548785753811 48.89435952525664 15.960365422504221 0 0 0 -0.8608509831539333 14.59013627697791 -1.5567650978670566 -0.5534165655939318 40.155440912566256 -0.7413170497267246 0 0 0 -20.524472981400155 -1.1363470066053272 -9.681033260835854 -59.47413195845026 -39.90053409355676 -15.399162946441203 -8.72334487263238 -17.85569672682207 4.308435810080089 7.9603264195082035 2.382989068480648 23.65984206112417 0 0 0 0 0 0 0 0 0 0 0 0 0 0 0 0 0 0 0 0 0 0 0 0 0 0 0 0 0 0 0 0 0 0 0 0 0 0 0 0 0 0 0 0 0 0 1.5275236235667615 0 0 0 0 0 0 0 0 0 0 0 0 0 20.74438375089363 -1.3203619055086555 9.659641030411997 67.97535668742405 -27.625509510738066 12.751801008579065 5.434702892164681 -17.829740031629346 -5.334578586395166 -7.7175945685827765 2.544092492196099 -24.476234996959533 0 0 0 0 0 0 0 0 0 0 0 0 0 0 0 0 0 0 0 0 0 0 0 0 0 0 0 0 0 0 0 0 0 0 0 0 0 0 0 0 0 0 0 0 0
0.1346301259557403 -7.283554845652888 -0.0231391712783821 0 21.05072400068948 0 -13.25530206948995 -63.67555004597608 34.38908143805593 177.1110254397622 54.94728910451606 -161.4250717376279 -2.613785477961802 48.67671221912564 -16.29857956396135 0 0 0 13.428425675300563 -63.531879734714764 -34.602002685191174 -177.19389435455585 55.00974327239236 161.24669842576674 3.064328144941325 49.018078517506034 16.66532581863421 0 0 0 -0.8579528831510264 13.762590407370332 -1.544333533188558 -0.5534165655939318 40.155440912566256 -0.7413170497267246 0 0 0 -21.150582384306702 -1.179747637142036 -9.554164356534796 -58.29422195150778 -40.392607427462714 -15.73792922092156 -8.535357106502403 -18.03041037618305 4.307253118992056 7.551555141280089 2.325505486366672 23.788129773694312 0 0 0 0 0 0 0 0 0 0 0 0 0 0 0 0 0 0 0 0 0 0 0 0 0 0 0 0 0 0 0 0 0 0 0 0 0 0 0 0 0 0 0 0 0 0 1.5275236235667615 0 0 0 0 0 0 0 0 0 0 0 0 0 21.378736105579062 -1.3699439612455844 9.530970635517336 67.23209073566109 -27.73604365049764 12.735513220792136 5.300516141603389 -18.004135398610934 -5.335758504966813 -7.299773193286681 2.4957210602920825 -24.632967532748193 0 0 0 0 0 0 0 0 0 0 0 0 0 0 0 0 0 0 0 0 0 0 0 0 0 0 0 0 0 0 0 0 0 0 0 0 0 0 0 0 0 0 0 0 0
0.1346301259557403 -7.251066229603558 -0.041358980615995126 0 22.50247072747576 0 -14.277740783540422 -64.89911972172443 34.39457229834893 177.1110254397622 54.94728910451606 -161.4250717376279 -3.1115091545552813 48.899263335775494 -17.679699383791185 0 0 0 14.469481896860785 -64.7446098200401 -34.6281090237291 -177.19389435455585 55.00974327239236 161.24669842576674 3.6044035150748 49.25888238672732 18.082157863838113 0 0 0 -0.8527425901071107 12.109916256654557 -1.5197565485926756 -0.5534165655939318 40.155440912566256 -0.7413170497267246 0 0 0 -22.402026771917992 -1.262307946696167 -9.299251460024628 -55.8999205074564 -41.358805757271476 -16.46210341087297 -8.158850615501002 -18.379774012250298 4.303071419536444 6.734014148109371 2.213332803416811 24.045794983092097 0 0 0 0 0 0 0 0 0 0 0 0 0 0 0 0 0 0 0 0 0 0 0 0 0 0 0 0 0 0 0 0 0 0 0 0 0 0 0 0 0 0 0 0 0 0 1.5275236235667615 0 0 0 0 0 0 0 0 0 0 0 0 0 22.64668667179556 -1.464739074665708 9.272249448043127 65.74257079398137 -27.957741310700428 12.707753068550108 5.031778705499954 -18.352899421464798 -5.336833603040022 -6.464162919852302 2.402452653838395 -24.947319028925968 0 0 0 0 0 0 0 0 0 0 0 0 0 0 0 0 0 0 0 0 0 0 0 0 0 0 0 0 0 0 0 0 0 0 0 0 0 0 0 0 0 0 0 0 0
